<?xml version="1.0" standalone="no"?>
<!DOCTYPE svg PUBLIC "-//W3C//DTD SVG 20010904//EN"
 "http://www.w3.org/TR/2001/REC-SVG-20010904/DTD/svg10.dtd">
<svg version="1.0" xmlns="http://www.w3.org/2000/svg"
 width="512.000000pt" height="512.000000pt" viewBox="0 0 512.000000 512.000000"
 preserveAspectRatio="xMidYMid meet">
<metadata>
Created by potrace 1.11, written by Peter Selinger 2001-2013
</metadata>
<g transform="translate(0.000000,512.000000) scale(0.100000,-0.100000)"
fill="#000000" stroke="none">
<path d="M2505 4405 c-24 -23 -25 -30 -25 -150 0 -69 -2 -125 -5 -125 -3 0
-66 30 -140 67 -131 65 -136 67 -162 53 -40 -23 -60 -62 -48 -97 8 -23 38 -42
183 -116 l172 -87 0 -217 0 -217 -67 92 c-75 101 -106 122 -152 102 -31 -13
-56 -58 -49 -88 3 -10 64 -97 137 -194 l131 -175 0 -249 0 -249 -176 177 -177
176 -32 223 c-29 199 -35 225 -56 242 -33 26 -87 19 -112 -15 -20 -27 -20 -30
-5 -140 8 -62 14 -114 14 -115 -1 -1 -69 65 -151 147 l-149 150 59 179 c53
163 57 181 46 209 -17 41 -60 59 -101 42 -31 -13 -40 -30 -95 -200 -15 -47
-30 -89 -32 -93 -3 -5 -44 30 -92 77 -48 46 -99 88 -114 91 -50 13 -105 -42
-92 -93 3 -14 45 -65 91 -113 47 -48 82 -89 77 -92 -4 -2 -46 -17 -93 -32
-170 -55 -187 -64 -200 -95 -17 -41 1 -84 42 -101 28 -11 46 -7 209 46 l179
59 150 -149 c82 -82 148 -150 147 -151 -1 0 -53 6 -115 14 -110 15 -113 15
-140 -5 -34 -25 -41 -79 -15 -112 17 -21 43 -27 242 -56 l223 -32 176 -177
177 -176 -249 0 -249 0 -175 131 c-97 73 -184 134 -194 137 -30 7 -75 -18 -88
-49 -20 -46 1 -77 102 -151 l92 -68 -217 0 -217 0 -87 173 c-74 144 -93 174
-116 182 -35 12 -74 -8 -97 -48 -14 -26 -12 -31 53 -162 37 -74 67 -137 67
-140 0 -3 -56 -5 -125 -5 -120 0 -127 -1 -150 -25 -16 -15 -25 -36 -25 -55 0
-19 9 -40 25 -55 23 -24 30 -25 150 -25 69 0 125 -2 125 -5 0 -3 -30 -66 -67
-140 -65 -131 -67 -136 -53 -162 23 -40 62 -60 97 -48 23 8 42 38 116 183 l87
172 217 0 217 0 -92 -67 c-101 -75 -122 -106 -102 -152 13 -31 58 -56 88 -49
10 3 97 64 194 137 l175 131 249 0 249 0 -177 -176 -176 -177 -223 -32 c-199
-29 -225 -35 -242 -56 -26 -33 -19 -87 15 -112 27 -20 30 -20 140 -5 62 8 114
14 115 14 1 -1 -65 -69 -147 -151 l-150 -149 -179 59 c-163 53 -181 57 -209
46 -41 -17 -59 -60 -42 -101 13 -31 30 -40 200 -95 47 -15 89 -30 93 -32 5 -3
-30 -44 -77 -92 -46 -48 -88 -99 -91 -113 -13 -51 42 -106 92 -93 15 3 66 45
114 91 48 47 89 82 92 77 2 -4 17 -46 32 -93 55 -170 64 -187 95 -200 41 -17
84 1 101 42 11 28 7 46 -46 209 l-59 179 149 150 c82 82 150 148 151 147 0 -1
-6 -53 -14 -115 -15 -110 -15 -113 5 -140 25 -34 79 -41 112 -15 21 17 27 43
56 242 l32 223 177 176 176 177 0 -249 0 -249 -131 -175 c-73 -97 -134 -184
-137 -194 -7 -30 18 -75 49 -88 46 -20 77 1 152 102 l67 92 0 -217 0 -217
-172 -87 c-145 -74 -175 -93 -183 -116 -12 -35 8 -74 48 -97 26 -14 31 -12
162 53 74 37 137 67 140 67 3 0 5 -56 5 -125 0 -120 1 -127 25 -150 32 -33 78
-33 110 0 24 23 25 30 25 150 0 69 2 125 5 125 3 0 66 -30 140 -67 131 -65
136 -67 162 -53 40 23 60 62 48 97 -8 23 -38 42 -182 116 l-173 87 0 217 0
217 68 -92 c74 -101 105 -122 151 -102 31 13 56 58 49 88 -3 10 -64 97 -137
194 l-131 175 0 249 0 249 176 -177 177 -176 32 -223 c29 -199 35 -225 56
-242 33 -26 87 -19 112 15 20 27 20 30 5 140 -8 62 -14 114 -14 115 1 1 69
-65 151 -147 l149 -150 -59 -179 c-53 -163 -57 -181 -46 -209 17 -41 60 -59
101 -42 31 13 40 30 95 200 15 47 30 89 32 93 3 5 44 -30 92 -77 48 -46 99
-88 114 -91 50 -13 105 42 92 93 -3 14 -45 65 -91 113 -47 48 -82 89 -77 92 4
2 46 17 93 32 170 55 187 64 200 95 17 41 -1 84 -42 101 -28 11 -46 7 -209
-46 l-179 -59 -150 149 c-82 82 -148 150 -147 151 1 0 53 -6 115 -14 110 -15
113 -15 140 5 34 25 41 79 15 112 -17 21 -43 27 -242 56 l-223 32 -176 177
-177 176 249 0 249 0 175 -131 c97 -73 184 -134 194 -137 30 -7 75 18 88 49
20 46 -1 77 -102 152 l-92 67 217 0 217 0 87 -172 c74 -145 93 -175 116 -183
35 -12 74 8 97 48 14 26 12 31 -53 162 -37 74 -67 137 -67 140 0 3 56 5 125 5
120 0 127 1 150 25 33 32 33 78 0 110 -23 24 -30 25 -150 25 -69 0 -125 2
-125 5 0 3 30 66 67 140 65 131 67 136 53 162 -23 40 -62 60 -97 48 -23 -8
-42 -38 -116 -182 l-87 -173 -217 0 -217 0 92 68 c101 74 122 105 102 151 -13
31 -58 56 -88 49 -10 -3 -97 -64 -194 -137 l-175 -131 -249 0 -249 0 177 176
176 177 223 32 c199 29 225 35 242 56 26 33 19 87 -15 112 -27 20 -30 20 -140
5 -62 -8 -114 -14 -115 -14 -1 1 65 69 147 151 l150 149 179 -59 c163 -53 181
-57 209 -46 41 17 59 60 42 101 -13 31 -30 40 -200 95 -47 15 -89 30 -93 32
-5 3 30 44 77 92 46 48 88 99 91 113 13 51 -42 106 -92 93 -15 -3 -66 -45
-114 -91 -48 -47 -89 -82 -92 -77 -2 4 -17 46 -32 93 -55 170 -64 187 -95 200
-41 17 -84 -1 -101 -42 -11 -28 -7 -46 46 -209 l59 -179 -149 -150 c-82 -82
-150 -148 -151 -147 0 1 6 53 14 115 15 110 15 113 -5 140 -25 34 -79 41 -112
15 -21 -17 -27 -43 -56 -242 l-32 -223 -177 -176 -176 -177 0 249 0 249 131
175 c73 97 134 184 137 194 7 30 -18 75 -49 88 -46 20 -77 -1 -151 -102 l-68
-92 0 217 0 217 173 87 c144 74 174 93 182 116 12 35 -8 74 -48 97 -26 14 -31
12 -162 -53 -74 -37 -137 -67 -140 -67 -3 0 -5 56 -5 125 0 120 -1 127 -25
150 -15 16 -36 25 -55 25 -19 0 -40 -9 -55 -25z"/>
</g>
</svg>
